# xmcd
#
# Track frame offsets:
#	150
#	17660
#	43828
#	59612
#	82787
#	113416
#	127269
#	144012
#	162697
#	177615
#	207397
#
# Disc length: 3033
#
# Revision: 2
# Processed by: cddbd v1.5.1PL0 Copyright (c) Steve Scherf et al.
# Submitted via: audiograbber 1.82.01
# Normalized: r1:DSETVAR1
#
DISCID=9a0bd70b
DTITLE=Various Artist - Disco Hits [CD8]
DYEAR=1970
DGENRE=Disco
TTITLE0=ABBA - Thank You For The Music
TTITLE1=Barry Manilow - Copacabana
TTITLE2=My First, My Last, My Everything - Barry White
TTITLE3=Cheryl Lynn - Got To Be Real
TTITLE4=Donna Summer - Hot Stuff
TTITLE5=Gloria Gaynor - Never Can Say Goodbye
TTITLE6=Heatwave - Boogie Nights
TTITLE7=Lipps, Inc - Funkytown
TTITLE8=Rose Royce - Car Wash
TTITLE9=Tavares - Heaven Must Be Missing An Angel
TTITLE10=T-Rex - Bang A Gong
EXTD=
EXTT0=
EXTT1=
EXTT2=
EXTT3=
EXTT4=
EXTT5=
EXTT6=
EXTT7=
EXTT8=
EXTT9=
EXTT10=
PLAYORDER=
